<svg width="777" height="224" viewBox="0 0 777 224" fill="none" xmlns="http://www.w3.org/2000/svg">
<rect x="37" y="58" width="685" height="109" rx="21" fill="white" stroke="#0C86FF" stroke-width="10"/>
<rect x="218.5" y="71.5" width="181" height="85" rx="42.5" fill="#C6FF80" stroke="#83D91B"/>
<path d="M91.608 89.785L103.678 121.877H103.82L115.961 89.785H130.019V95.536L127.676 95.749C126.256 95.891 125.57 96.7193 125.617 98.234L127.392 130.752L131.794 130.965V137H114.683V131.249L117.239 131.036C118.517 130.941 119.132 130.326 119.085 129.19L117.736 104.127H117.594L106.66 132.456H99.915L89.123 104.411H88.981L87.561 130.752L92.176 130.965V137H75.42V131.249L77.976 131.036C79.0647 130.941 79.6563 130.302 79.751 129.119L81.668 96.104L77.337 95.82V89.785H91.608ZM148.407 101.287V131.107L152.454 131.32V137H135.556V131.604L137.899 131.391C139.272 131.249 139.958 130.492 139.958 129.119V109.381C139.958 108.576 139.816 108.032 139.532 107.748C139.295 107.464 138.846 107.322 138.183 107.322L135.698 107.18V101.287H148.407ZM139.461 95.181C138.467 94.187 137.97 92.9327 137.97 91.418C137.97 89.9033 138.467 88.649 139.461 87.655C140.455 86.6137 141.757 86.093 143.366 86.093C144.975 86.093 146.277 86.6137 147.271 87.655C148.312 88.649 148.833 89.9033 148.833 91.418C148.833 92.9327 148.312 94.187 147.271 95.181C146.277 96.1277 144.975 96.601 143.366 96.601C141.757 96.601 140.455 96.1277 139.461 95.181ZM176.871 129.474L172.54 123.794L166.647 131.107L169.984 131.32V137H155.216V131.391L157.417 131.178C158.505 131.036 159.452 130.468 160.257 129.474L168.422 119.25L159.689 107.18L156.068 106.754V101.287H172.611V106.896L170.552 107.038C169.984 107.085 169.605 107.298 169.416 107.677C169.274 108.056 169.368 108.458 169.7 108.884L173.747 114.28L179.214 107.18L176.303 106.967V101.287H190.716V106.825L188.586 106.967C187.592 107.014 186.645 107.606 185.746 108.742L177.936 118.611L187.237 130.965L190.858 131.391V137H173.96V131.391L176.161 131.249C176.776 131.202 177.131 131.012 177.226 130.681C177.368 130.302 177.249 129.9 176.871 129.474Z" fill="#000159"/>
<mask id="path-4-outside-1_3_24" maskUnits="userSpaceOnUse" x="608" y="14" width="66" height="196" fill="black">
<rect fill="white" x="608" y="14" width="66" height="196"/>
<path fill-rule="evenodd" clip-rule="evenodd" d="M644.019 95.7364C644.033 95.7364 644.044 95.7252 644.044 95.7114V41.0555C644.044 35.7795 648.321 31.5025 653.597 31.5025H659.399C661.47 31.5025 663.15 29.823 663.15 27.7513C663.15 25.6795 661.47 24 659.399 24H621.801C619.729 24 618.05 25.6795 618.05 27.7513C618.05 29.823 619.729 31.5025 621.801 31.5025H627.603C632.879 31.5025 637.156 35.7796 637.156 41.0555V77.8688C637.156 77.8826 637.145 77.8938 637.131 77.8938C637.117 77.8938 637.106 77.905 637.106 77.9188L637.106 182.708C637.106 187.984 632.829 192.261 627.553 192.261L621.751 192.261C619.68 192.261 618 193.941 618 196.013C618 198.085 619.68 199.764 621.751 199.764H659.349C661.421 199.764 663.1 198.085 663.1 196.013C663.1 193.941 661.421 192.261 659.349 192.261H653.547C648.271 192.261 643.994 187.984 643.994 182.708L643.994 95.7614C643.994 95.7476 644.005 95.7364 644.019 95.7364Z"/>
</mask>
<path fill-rule="evenodd" clip-rule="evenodd" d="M644.019 95.7364C644.033 95.7364 644.044 95.7252 644.044 95.7114V41.0555C644.044 35.7795 648.321 31.5025 653.597 31.5025H659.399C661.47 31.5025 663.15 29.823 663.15 27.7513C663.15 25.6795 661.47 24 659.399 24H621.801C619.729 24 618.05 25.6795 618.05 27.7513C618.05 29.823 619.729 31.5025 621.801 31.5025H627.603C632.879 31.5025 637.156 35.7796 637.156 41.0555V77.8688C637.156 77.8826 637.145 77.8938 637.131 77.8938C637.117 77.8938 637.106 77.905 637.106 77.9188L637.106 182.708C637.106 187.984 632.829 192.261 627.553 192.261L621.751 192.261C619.68 192.261 618 193.941 618 196.013C618 198.085 619.68 199.764 621.751 199.764H659.349C661.421 199.764 663.1 198.085 663.1 196.013C663.1 193.941 661.421 192.261 659.349 192.261H653.547C648.271 192.261 643.994 187.984 643.994 182.708L643.994 95.7614C643.994 95.7476 644.005 95.7364 644.019 95.7364Z" fill="#003478"/>
<path d="M643.994 95.7614H633.994H643.994ZM643.994 182.708H633.994H643.994ZM621.751 192.261L621.751 182.261L621.751 192.261ZM627.553 192.261L627.553 202.261L627.553 192.261ZM637.106 77.9188H627.106H637.106ZM634.044 41.0555V95.7114H654.044V41.0555H634.044ZM659.399 21.5025H653.597V41.5025H659.399V21.5025ZM621.801 34H659.399V14H621.801V34ZM627.603 21.5025H621.801V41.5025H627.603V21.5025ZM647.156 77.8688V41.0555H627.156V77.8688H647.156ZM647.106 182.708L647.106 77.9188L627.106 77.9188L627.106 182.708H647.106ZM621.751 202.261H627.553L627.553 182.261L621.751 182.261L621.751 202.261ZM659.349 189.764H621.751V209.764H659.349V189.764ZM653.547 202.261H659.349V182.261H653.547V202.261ZM633.994 95.7614L633.994 182.708H653.994L653.994 95.7614L633.994 95.7614ZM653.994 95.7614C653.994 101.27 649.528 105.736 644.019 105.736V85.7364C638.482 85.7364 633.994 90.2248 633.994 95.7614L653.994 95.7614ZM653.547 182.261C653.794 182.261 653.994 182.462 653.994 182.708H633.994C633.994 193.507 642.748 202.261 653.547 202.261V182.261ZM673.1 196.013C673.1 188.418 666.943 182.261 659.349 182.261V202.261C655.898 202.261 653.1 199.464 653.1 196.013H673.1ZM659.349 209.764C666.943 209.764 673.1 203.607 673.1 196.013H653.1C653.1 192.562 655.898 189.764 659.349 189.764V209.764ZM608 196.013C608 203.607 614.157 209.764 621.751 209.764V189.764C625.202 189.764 628 192.562 628 196.013H608ZM621.751 182.261C614.157 182.261 608 188.418 608 196.013H628C628 199.464 625.202 202.261 621.751 202.261L621.751 182.261ZM627.106 182.708C627.106 182.462 627.306 182.261 627.553 182.261L627.553 202.261C638.352 202.261 647.106 193.507 647.106 182.708H627.106ZM637.131 67.8938C631.597 67.8938 627.106 72.3793 627.106 77.9188L647.106 77.9188C647.106 83.4306 642.637 87.8938 637.131 87.8938V67.8938ZM627.156 77.8688C627.156 72.3598 631.622 67.8938 637.131 67.8938V87.8938C642.668 87.8938 647.156 83.4055 647.156 77.8688H627.156ZM627.603 41.5025C627.356 41.5025 627.156 41.3024 627.156 41.0555H647.156C647.156 30.2567 638.402 21.5025 627.603 21.5025V41.5025ZM608.05 27.7513C608.05 35.3459 614.207 41.5025 621.801 41.5025V21.5025C625.252 21.5025 628.05 24.3002 628.05 27.7513H608.05ZM621.801 14C614.207 14 608.05 20.1567 608.05 27.7513H628.05C628.05 31.2023 625.252 34 621.801 34V14ZM673.15 27.7513C673.15 20.1566 666.993 14 659.399 14V34C655.948 34 653.15 31.2024 653.15 27.7513H673.15ZM659.399 41.5025C666.993 41.5025 673.15 35.3459 673.15 27.7513H653.15C653.15 24.3002 655.948 21.5025 659.399 21.5025V41.5025ZM634.044 95.7114C634.044 90.2001 638.512 85.7364 644.019 85.7364V105.736C649.553 105.736 654.044 101.25 654.044 95.7114H634.044ZM654.044 41.0555C654.044 41.3024 653.844 41.5025 653.597 41.5025V21.5025C642.798 21.5025 634.044 30.2567 634.044 41.0555H654.044Z" fill="white" mask="url(#path-4-outside-1_3_24)"/>
<path d="M431.674 128.693V96.033L427.627 95.82V89.785H444.809V95.536L442.466 95.749C441.093 95.891 440.407 96.6483 440.407 98.021V130.752L444.454 130.965V137H427.272V131.249L429.615 131.036C430.325 130.941 430.846 130.752 431.177 130.468C431.508 130.137 431.674 129.545 431.674 128.693ZM448.688 106.967V101.287H460.687V105.902C461.918 104.151 463.551 102.778 465.586 101.784C467.622 100.743 469.823 100.222 472.189 100.222C475.787 100.222 478.556 101.263 480.496 103.346C482.484 105.381 483.478 108.458 483.478 112.576V131.107L487.525 131.32V137H470.627V131.604L472.97 131.391C473.68 131.296 474.201 131.107 474.532 130.823C474.864 130.492 475.029 129.9 475.029 129.048V114.422C475.029 111.819 474.627 109.902 473.822 108.671C473.018 107.393 471.479 106.754 469.207 106.754C466.983 106.754 465.208 107.464 463.882 108.884C462.557 110.304 461.894 111.984 461.894 113.925V131.107L465.941 131.32V137H449.043V131.604L451.386 131.391C452.096 131.296 452.617 131.107 452.948 130.823C453.28 130.492 453.445 129.9 453.445 129.048V109.381C453.445 107.961 452.854 107.227 451.67 107.18L448.688 106.967ZM495.663 143.745V109.381C495.663 108.576 495.521 108.032 495.237 107.748C495 107.417 494.55 107.251 493.888 107.251L490.906 107.038V101.287H502.905V105.902C503.662 104.482 505.035 103.18 507.023 101.997C509.011 100.814 511.377 100.222 514.123 100.222C522.69 100.222 526.974 106.233 526.974 118.256C526.974 124.646 525.577 129.545 522.785 132.953C519.992 136.361 516.205 138.065 511.425 138.065C508.585 138.065 506.052 137.379 503.828 136.006V145.804L509.579 146.088V151.697H491.261V146.301L493.604 146.088C494.314 145.993 494.834 145.78 495.166 145.449C495.497 145.165 495.663 144.597 495.663 143.745ZM518.17 118.966C518.17 111.061 515.779 107.109 510.999 107.109C509.011 107.109 507.307 107.724 505.887 108.955C504.514 110.138 503.828 111.558 503.828 113.215V129.545C505.626 130.728 507.804 131.32 510.36 131.32C512.963 131.32 514.904 130.137 516.182 127.77C517.507 125.403 518.17 122.469 518.17 118.966ZM569.67 131.391V137H558.168V132.385C555.565 136.077 551.731 137.923 546.666 137.923C539.33 137.923 535.661 133.829 535.661 125.64V109.239C535.661 107.961 535.07 107.298 533.886 107.251L531.614 107.109V101.287H544.11V123.794C544.11 126.303 544.465 128.196 545.175 129.474C545.885 130.752 547.353 131.391 549.577 131.391C551.802 131.391 553.577 130.705 554.902 129.332C556.275 127.959 556.961 126.303 556.961 124.362V109.381C556.961 108.624 556.819 108.103 556.535 107.819C556.299 107.488 555.849 107.298 555.186 107.251L552.914 107.109V101.287H565.41V129.119C565.41 129.876 565.529 130.397 565.765 130.681C566.002 130.918 566.475 131.083 567.185 131.178L569.67 131.391ZM579.72 93.761H584.335V101.287H593.778L593.068 107.251H584.335V125.924C584.335 128.007 584.714 129.474 585.471 130.326C586.228 131.131 587.388 131.533 588.95 131.533C590.559 131.533 592.169 131.036 593.778 130.042L595.908 135.509C593.541 137.166 590.536 137.994 586.891 137.994C584.761 137.994 582.962 137.71 581.495 137.142C580.028 136.621 578.939 136.03 578.229 135.367C577.519 134.704 576.975 133.734 576.596 132.456C576.217 131.178 576.004 130.184 575.957 129.474C575.91 128.717 575.886 127.628 575.886 126.208V107.251H570.845L571.555 102.068C573.78 101.879 575.46 101.098 576.596 99.725C577.732 98.305 578.773 96.317 579.72 93.761Z" fill="#000159"/>
<path d="M264.478 129.048V96.814H258.94C257.851 96.814 257.307 97.5477 257.307 99.015V102.352L250.065 101.855V89.785H287.198V101.855L279.956 102.352V99.015C279.956 98.2103 279.838 97.6423 279.601 97.311C279.364 96.9797 278.796 96.814 277.897 96.814H273.069V130.752L278.678 130.965V137H258.656V131.249L262.419 131.036C263.792 130.894 264.478 130.231 264.478 129.048ZM322.466 102.707V129.119C322.466 129.876 322.584 130.397 322.821 130.681C323.105 130.965 323.578 131.131 324.241 131.178L326.513 131.32V137H315.224V132.882L315.011 132.811C312.644 136.219 309.402 137.923 305.284 137.923C300.456 137.923 296.882 136.385 294.563 133.308C292.244 130.231 291.084 126.019 291.084 120.67C291.084 114.233 292.646 109.215 295.77 105.618C298.894 102.021 303.58 100.222 309.828 100.222C313.851 100.222 318.064 101.05 322.466 102.707ZM314.23 125.711V107.322C312.905 106.707 311.082 106.399 308.763 106.399C305.592 106.399 303.296 107.677 301.876 110.233C300.456 112.789 299.746 116.173 299.746 120.386C299.746 128.054 302.207 131.888 307.13 131.888C309.213 131.888 310.917 131.273 312.242 130.042C313.567 128.764 314.23 127.32 314.23 125.711ZM362.466 136.929C362.04 142.183 360.526 146.041 357.922 148.502C355.319 150.963 351.248 152.194 345.71 152.194C340.172 152.194 335.841 151.413 332.717 149.851V139.982L339.462 139.414V142.822C339.462 144.1 340.054 144.952 341.237 145.378C342.421 145.851 344.054 146.088 346.136 146.088C349.166 146.088 351.296 145.165 352.526 143.319C353.757 141.52 354.372 138.964 354.372 135.651V131.746C352.1 134.397 348.953 135.722 344.929 135.722C342.468 135.722 340.291 135.249 338.397 134.302C336.551 133.355 335.108 132.077 334.066 130.468C332.031 127.249 331.013 123.463 331.013 119.108C331.013 112.907 332.694 108.221 336.054 105.05C339.415 101.831 343.888 100.222 349.473 100.222C354.112 100.222 358.49 101.098 362.608 102.849V129.19C362.608 133.213 362.561 135.793 362.466 136.929ZM354.372 122.516V107.251C352.716 106.683 350.822 106.399 348.692 106.399C345.805 106.399 343.58 107.464 342.018 109.594C340.504 111.724 339.746 114.611 339.746 118.256C339.746 125.735 342.208 129.474 347.13 129.474C349.166 129.474 350.87 128.859 352.242 127.628C353.662 126.35 354.372 124.646 354.372 122.516Z" fill="#192D00"/>
</svg>
