<svg width="250" height="226" viewBox="0 0 250 226" fill="none" xmlns="http://www.w3.org/2000/svg">
<path d="M104 101.022C120.158 132.101 163.173 187.419 210.951 167.247C243.571 153.475 217.472 126.148 182.501 142.302C147.53 158.456 159.595 211.995 237.868 204.367M237.868 204.367L227.047 195.249M237.868 204.367L221.93 215.633" stroke="#9DA6B6" stroke-width="5" stroke-linecap="round"/>
<path d="M199 53.5C199 65.7218 188.987 77.3311 171.552 86.004C154.239 94.616 130.182 100 103.5 100C76.8179 100 52.7605 94.616 35.4478 86.004C18.0126 77.3311 8 65.7218 8 53.5C8 41.2782 18.0126 29.6689 35.4478 20.996C52.7605 12.3841 76.8179 7 103.5 7C130.182 7 154.239 12.3841 171.552 20.996C188.987 29.6689 199 41.2782 199 53.5Z" stroke="#9DA6B6" stroke-width="4"/>
<path d="M68.408 40.758C64.7 40.578 61.136 40.866 57.716 41.622C54.296 42.378 50.912 43.404 47.564 44.7C46.7 45.024 46.034 44.988 45.566 44.592C45.134 44.196 44.918 43.8 44.918 43.404C45.17 42.72 45.62 42.162 46.268 41.73C53.648 38.13 61.028 36.798 68.408 37.734C68.768 37.842 69.056 38.112 69.272 38.544C69.524 38.94 69.614 39.282 69.542 39.57C69.47 39.93 69.362 40.236 69.218 40.488C69.074 40.704 68.804 40.794 68.408 40.758ZM60.74 59.604C60.74 60 60.596 60.36 60.308 60.684C60.056 60.972 59.732 61.152 59.336 61.224C58.616 61.332 58.148 61.206 57.932 60.846C57.716 60.486 57.59 60.072 57.554 59.604C57.518 57.084 57.464 54.582 57.392 52.098C57.356 49.578 57.248 47.058 57.068 44.538C57.068 44.394 57.05 44.232 57.014 44.052C56.978 43.836 56.978 43.638 57.014 43.458C57.05 43.242 57.122 43.062 57.23 42.918C57.374 42.774 57.59 42.666 57.878 42.594C58.706 42.45 59.3 42.594 59.66 43.026C60.02 43.422 60.2 43.818 60.2 44.214C60.488 46.806 60.668 49.38 60.74 51.936C60.812 54.492 60.812 57.048 60.74 59.604ZM88.9909 43.62C88.3429 43.98 87.6589 44.358 86.9389 44.754C86.2549 45.15 85.5529 45.618 84.8329 46.158C84.1489 46.662 83.4829 47.274 82.8349 47.994C82.2229 48.678 81.6649 49.506 81.1609 50.478C80.4409 51.846 79.9549 53.25 79.7029 54.69C79.4509 56.094 79.2889 57.48 79.2169 58.848C79.2169 59.496 79.0549 60.162 78.7309 60.846C78.4429 61.494 78.0289 61.818 77.4889 61.818C76.8049 61.818 76.2469 61.476 75.8149 60.792C75.4189 60.072 75.1489 59.388 75.0049 58.74C74.3929 56.184 73.8889 53.664 73.4929 51.18C73.0969 48.66 72.7549 46.158 72.4669 43.674C72.4669 43.17 72.6109 42.846 72.8989 42.702C73.2229 42.558 73.5829 42.504 73.9789 42.54C74.4109 42.576 74.8249 42.684 75.2209 42.864C75.6169 43.044 75.8509 43.332 75.9229 43.728C76.0669 45.06 76.2469 46.464 76.4629 47.94C76.6789 49.38 76.8949 50.622 77.1109 51.666C77.2549 50.442 77.6509 49.254 78.2989 48.102C78.9469 46.95 79.7389 45.906 80.6749 44.97C81.6469 44.034 82.7269 43.242 83.9149 42.594C85.1389 41.946 86.3809 41.514 87.6409 41.298C88.1809 41.226 88.6309 41.226 88.9909 41.298C89.3509 41.37 89.6029 41.496 89.7469 41.676C89.8909 41.856 89.9089 42.144 89.8009 42.54C89.7289 42.936 89.4589 43.296 88.9909 43.62ZM108.991 45.24C109.099 47.184 109.207 49.146 109.315 51.126C109.459 53.106 109.495 55.068 109.423 57.012C109.351 58.92 109.153 60.792 108.829 62.628C108.541 64.464 108.037 66.228 107.317 67.92C106.597 69.576 105.625 71.124 104.401 72.564C103.213 74.004 101.701 75.3 99.8651 76.452C99.5771 76.632 99.2531 76.74 98.8931 76.776C98.5691 76.812 98.2451 76.794 97.9211 76.722C97.5971 76.686 97.3091 76.596 97.0571 76.452C96.8051 76.344 96.6431 76.182 96.5711 75.966C96.4631 75.642 96.5171 75.282 96.7331 74.886C96.9491 74.49 97.3091 74.076 97.8131 73.644C99.3971 72.456 100.729 71.196 101.809 69.864C102.889 68.532 103.753 67.092 104.401 65.544C105.049 63.996 105.463 62.322 105.643 60.522C105.859 58.686 105.859 56.688 105.643 54.528C105.211 55.068 104.707 55.626 104.131 56.202C103.555 56.778 102.943 57.3 102.295 57.768C101.647 58.2 100.981 58.578 100.297 58.902C99.6131 59.19 98.9651 59.334 98.3531 59.334C97.8491 59.334 97.3451 59.226 96.8411 59.01C96.3371 58.794 95.8331 58.38 95.3291 57.768C94.7531 57.012 94.2311 56.166 93.7631 55.23C93.3311 54.258 92.9531 53.322 92.6291 52.422C92.3051 51.522 92.0351 50.712 91.8191 49.992C91.6391 49.272 91.5311 48.768 91.4951 48.48C91.4231 48.12 91.4231 47.778 91.4951 47.454C91.5671 47.13 91.8011 46.932 92.1971 46.86C92.7371 46.752 93.2411 46.788 93.7091 46.968C94.1771 47.148 94.5011 47.436 94.6811 47.832C94.8251 48.228 95.0231 48.84 95.2751 49.668C95.5271 50.496 95.8331 51.324 96.1931 52.152C96.5531 52.944 96.9311 53.646 97.3271 54.258C97.7591 54.87 98.2091 55.176 98.6771 55.176C99.2171 55.176 99.8471 54.906 100.567 54.366C101.323 53.826 102.043 53.124 102.727 52.26C103.411 51.396 103.987 50.442 104.455 49.398C104.959 48.318 105.211 47.274 105.211 46.266C105.211 46.05 105.247 45.798 105.319 45.51C105.391 45.222 105.499 44.952 105.643 44.7C105.787 44.412 105.949 44.178 106.129 43.998C106.345 43.782 106.561 43.656 106.777 43.62C107.353 43.548 107.857 43.71 108.289 44.106C108.757 44.466 108.991 44.844 108.991 45.24ZM138.395 40.218C138.323 40.578 138.071 40.776 137.639 40.812C137.207 40.848 136.847 40.866 136.559 40.866C135.659 40.902 134.723 40.992 133.751 41.136C132.815 41.28 131.825 41.496 130.781 41.784C130.349 41.928 129.881 41.874 129.377 41.622C128.873 41.37 128.567 40.866 128.459 40.11C128.459 39.822 128.567 39.588 128.783 39.408C128.999 39.228 129.251 39.066 129.539 38.922C130.007 38.706 130.565 38.526 131.213 38.382C131.861 38.202 132.509 38.076 133.157 38.004C133.841 37.932 134.489 37.914 135.101 37.95C135.713 37.95 136.217 38.004 136.613 38.112C137.189 38.292 137.639 38.562 137.963 38.922C138.323 39.282 138.467 39.714 138.395 40.218ZM137.153 58.2C137.405 58.776 137.531 59.406 137.531 60.09C137.567 60.738 137.387 61.188 136.991 61.44C136.487 61.764 135.947 61.746 135.371 61.386C134.795 61.026 134.363 60.54 134.075 59.928C133.679 59.172 133.373 58.254 133.157 57.174C132.941 56.058 132.779 54.96 132.671 53.88C132.563 52.8 132.491 51.792 132.455 50.856C132.455 49.92 132.455 49.218 132.455 48.75C132.491 48.246 132.635 47.778 132.887 47.346C133.139 46.914 133.463 46.662 133.859 46.59C134.507 46.626 135.029 46.932 135.425 47.508C135.821 48.048 136.001 48.732 135.965 49.56C135.965 50.208 135.983 50.928 136.019 51.72C136.055 52.512 136.127 53.304 136.235 54.096C136.343 54.888 136.469 55.662 136.613 56.418C136.757 57.138 136.937 57.732 137.153 58.2ZM154.66 47.778C155.344 47.742 156.028 47.904 156.712 48.264C157.396 48.624 157.738 49.182 157.738 49.938C157.666 50.55 157.324 50.946 156.712 51.126C156.136 51.27 155.668 51.342 155.308 51.342C154.588 51.342 153.814 51.36 152.986 51.396C152.158 51.432 151.312 51.486 150.448 51.558C150.376 52.746 150.304 53.862 150.232 54.906C150.196 55.95 150.16 56.886 150.124 57.714C150.088 58.506 150.07 59.154 150.07 59.658C150.07 60.162 150.088 60.432 150.124 60.468C150.916 60.324 151.762 60.09 152.662 59.766C153.598 59.406 154.516 59.028 155.416 58.632C156.352 58.2 157.252 57.768 158.116 57.336C159.016 56.868 159.862 56.436 160.654 56.04C161.014 55.86 161.338 55.806 161.626 55.878C161.95 55.95 162.148 56.112 162.22 56.364C162.292 56.76 162.238 57.246 162.058 57.822C161.878 58.398 161.554 58.92 161.086 59.388C160.546 59.82 159.826 60.324 158.926 60.9C158.062 61.44 157.126 61.962 156.118 62.466C155.11 62.97 154.084 63.42 153.04 63.816C152.032 64.176 151.132 64.392 150.34 64.464C149.152 64.572 148.252 64.248 147.64 63.492C147.028 62.736 146.686 61.782 146.614 60.63C146.542 59.478 146.524 58.146 146.56 56.634C146.632 55.122 146.704 53.52 146.776 51.828C146.092 51.9 145.426 51.972 144.778 52.044C144.166 52.08 143.572 52.134 142.996 52.206C142.528 52.206 142.006 52.098 141.43 51.882C140.89 51.666 140.62 51.252 140.62 50.64C140.62 50.424 140.71 50.136 140.89 49.776C141.07 49.416 141.466 49.146 142.078 48.966C143.554 48.714 145.192 48.498 146.992 48.318C147.1 46.626 147.226 44.988 147.37 43.404C147.514 41.82 147.64 40.38 147.748 39.084C147.784 38.652 147.91 38.274 148.126 37.95C148.342 37.626 148.576 37.464 148.828 37.464C149.44 37.428 150.016 37.59 150.556 37.95C151.132 38.274 151.42 38.652 151.42 39.084C151.276 40.308 151.132 41.694 150.988 43.242C150.88 44.79 150.772 46.374 150.664 47.994C151.384 47.922 152.068 47.886 152.716 47.886C153.4 47.85 154.048 47.814 154.66 47.778Z" fill="#9DA6B6"/>
</svg>
